<svg width="526" height="502" viewBox="0 0 526 502" fill="none" xmlns="http://www.w3.org/2000/svg">
<g filter="url(#filter0_b)">
<path fill-rule="evenodd" clip-rule="evenodd" d="M55.3274 208.648C73.5254 165.109 137.864 171.43 176.673 145.104C213.93 119.829 231.905 61.8778 276.435 58.655C320.87 55.439 350.665 102.05 385.321 130.003C418.757 156.972 463.723 176.636 474.734 218.602C485.673 260.288 453.471 299.347 440.613 340.724C427.215 383.837 436.626 443.173 397.927 465.766C358.643 488.702 312.493 450.302 268.344 441.301C234.666 434.435 199.721 436.95 170.189 419.335C138.051 400.167 113.907 371.518 95.8673 338.429C73.7038 297.775 37.3021 251.773 55.3274 208.648Z" fill="url(#paint0_linear)"/>
<path fill-rule="evenodd" clip-rule="evenodd" d="M55.3274 208.648C73.5254 165.109 137.864 171.43 176.673 145.104C213.93 119.829 231.905 61.8778 276.435 58.655C320.87 55.439 350.665 102.05 385.321 130.003C418.757 156.972 463.723 176.636 474.734 218.602C485.673 260.288 453.471 299.347 440.613 340.724C427.215 383.837 436.626 443.173 397.927 465.766C358.643 488.702 312.493 450.302 268.344 441.301C234.666 434.435 199.721 436.95 170.189 419.335C138.051 400.167 113.907 371.518 95.8673 338.429C73.7038 297.775 37.3021 251.773 55.3274 208.648Z" stroke="url(#paint1_linear)" stroke-width="2"/>
</g>
<defs>
<filter id="filter0_b" x="-14.2703" y="-14.2704" width="554.685" height="530.808" filterUnits="userSpaceOnUse" color-interpolation-filters="sRGB">
<feFlood flood-opacity="0" result="BackgroundImageFix"/>
<feGaussianBlur in="BackgroundImage" stdDeviation="7.5"/>
<feComposite in2="SourceAlpha" operator="in" result="effect1_backgroundBlur"/>
<feBlend mode="normal" in="SourceGraphic" in2="effect1_backgroundBlur" result="shape"/>
</filter>
<linearGradient id="paint0_linear" x1="159.753" y1="38.4661" x2="164.753" y2="491.466" gradientUnits="userSpaceOnUse">
<stop stop-color="white" stop-opacity="0.4"/>
<stop offset="1" stop-color="white" stop-opacity="0.1"/>
</linearGradient>
<linearGradient id="paint1_linear" x1="182.753" y1="17.4661" x2="184.253" y2="555.966" gradientUnits="userSpaceOnUse">
<stop offset="0.176795" stop-color="white"/>
<stop offset="0.787295" stop-color="white" stop-opacity="0.1"/>
</linearGradient>
</defs>
</svg>
