<svg width="3418" height="2959" viewBox="0 0 3418 2959" fill="none" xmlns="http://www.w3.org/2000/svg">
<path d="M1225.49 36.2484C1299.86 193.623 1515.17 207.339 1646.61 331.192C1781.47 459.056 1732.21 517.123 1912.35 692.088C2026.07 802.858 2554.73 868.067 2699.06 947.476C2872.37 1043.45 2888.63 1183.51 3078.09 1251.8C3191.21 1292.42 3303.78 1332.69 3416.9 1373.31" stroke="url(#paint0_linear)" stroke-opacity="0.4" stroke-miterlimit="10"/>
<path d="M1192.29 78.1957C1241.5 182.88 1353.98 224.317 1461.79 276.865C1515.42 302.964 1567.66 331.855 1611.11 372.907C1746.07 499.608 1699.56 559.419 1879.85 728.975C1915.79 762.816 1990.06 791.002 2078.91 817.44C2267.67 873.044 2519.38 922.114 2637.56 975.124C2647.31 979.483 2656.2 983.901 2664.21 988.377C2805.05 1068.02 2843.29 1176.14 2956.26 1250.32C2981.21 1266.78 3010.06 1281.42 3044.01 1293.8C3156.81 1334.83 3270.26 1375.05 3383.38 1415.67" stroke="url(#paint1_linear)" stroke-opacity="0.4" stroke-miterlimit="10"/>
<path d="M1159.08 120.145C1208.07 224.072 1319.68 265.567 1427.16 318.522C1480.24 344.273 1532.49 373.165 1576.26 413.81C1710.77 538.999 1667.23 601.309 1847.99 765.047C1884.58 798.074 1959.17 825.854 2047.8 851.535C2238.07 906.266 2485.14 959.118 2603.67 1014.8C2613.43 1019.16 2622.31 1023.58 2630 1028.46C2769.01 1109.39 2809.31 1216.98 2922.29 1291.17C2947.23 1307.62 2975.76 1322.68 3009.71 1335.05C3122.74 1376.84 3236.18 1417.05 3349.63 1457.27" stroke="url(#paint2_linear)" stroke-opacity="0.4" stroke-miterlimit="10"/>
<path d="M1125.88 162.093C1174.87 266.021 1285.6 307.575 1392.54 360.181C1445.62 385.932 1497 414.882 1541.09 455.119C1674.82 579.204 1634.9 643.2 1815.5 801.936C1852.96 834.904 1927.96 861.113 2016.37 886.038C2208.71 940.245 2450.58 996.53 2569.47 1054.89C2578.9 1059.66 2587.79 1064.08 2595.8 1068.55C2732.74 1150 2775.11 1257.07 2888.86 1332.36C2913.8 1348.81 2942.33 1363.87 2976.28 1376.25C3088.99 1418.44 3202.75 1458.25 3316.98 1499.57" stroke="url(#paint3_linear)" stroke-opacity="0.4" stroke-miterlimit="10"/>
<path d="M1092.36 204.449C1141.12 307.621 1251.21 349.989 1357.92 401.84C1410.13 427.649 1462.37 456.541 1505.92 496.429C1639.2 619.001 1602.57 685.09 1783.32 838.416C1821.98 870.919 1896.76 896.372 1984.93 920.541C2178.79 973.875 2416.01 1033.94 2535.26 1094.98C2544.7 1099.75 2553.58 1104.16 2561.27 1109.05C2696.37 1191.78 2740.81 1298.32 2854.56 1373.61C2880.05 1390.41 2908.58 1405.47 2942.21 1418.25C3055.14 1461.2 3168.91 1501.01 3283.45 1541.92" stroke="url(#paint4_linear)" stroke-opacity="0.4" stroke-miterlimit="10"/>
<path d="M1059.16 246.398C1107.69 348.814 1217.46 391.59 1323.3 443.498C1375.51 469.307 1426.88 498.257 1470.75 537.738C1603.57 658.798 1570.56 726.573 1751.15 874.898C1790.67 907.342 1865.87 931.224 1953.82 954.636C2149.19 1007.1 2381.77 1070.95 2501.38 1134.66C2510.82 1139.43 2519.38 1144.25 2527.07 1149.14C2660.65 1232.74 2707.15 1338.76 2820.58 1414.45C2846.08 1431.26 2874.6 1446.31 2908.23 1459.1C3021.39 1502.8 3135.48 1542.2 3250.02 1583.12" stroke="url(#paint5_linear)" stroke-opacity="0.4" stroke-miterlimit="10"/>
<path d="M1025.96 288.347C1073.94 390.414 1182.84 433.248 1288.68 485.157C1340.89 510.966 1391.71 539.567 1435.57 579.048C1567.62 699.003 1538.78 768.812 1718.97 911.379C1759.14 943.008 1834.98 966.076 1922.38 989.139C2119.27 1040.73 2347.21 1108.36 2467.18 1174.75C2476.29 1179.92 2484.85 1184.75 2492.54 1189.63C2624.61 1274.1 2672.85 1380.01 2786.28 1455.71C2811.78 1472.51 2840.86 1487.91 2874.16 1501.11C2987 1545.22 3101.41 1584.21 3217.05 1625.82" stroke="url(#paint6_linear)" stroke-opacity="0.4" stroke-miterlimit="10"/>
<path d="M992.757 330.296C1041.06 431.955 1148.76 475.255 1254.05 526.815C1305.71 552.275 1357.09 581.226 1400.4 620.358C1532.32 738.393 1506.78 810.295 1686.79 947.859C1727.84 979.43 1803.78 1001.33 1891.27 1023.24C2089.68 1073.95 2312.74 1144.61 2434.17 1214.37C2443.28 1219.54 2451.84 1224.37 2459.53 1229.25C2589.76 1315.01 2640.07 1420.39 2754.05 1496.43C2780.09 1513.58 2808.3 1529.05 2841.93 1541.83C2955.31 1586.29 3069.4 1625.69 3185.04 1667.3" stroke="url(#paint7_linear)" stroke-opacity="0.4" stroke-miterlimit="10"/>
<path d="M959.555 372.245C1007.31 473.555 1115.01 516.855 1219.43 568.473C1271.09 593.933 1321.59 622.943 1365.23 661.667C1496.37 778.598 1475.32 852.127 1654.62 984.34C1696.86 1015.45 1772.89 1036.19 1859.83 1057.74C2059.76 1107.58 2278.18 1182.02 2399.96 1254.46C2409.07 1259.63 2417.31 1264.86 2425 1269.75C2553.17 1356.03 2606.09 1461.23 2719.75 1537.68C2745.47 1555.24 2774 1570.3 2807.3 1583.49C2920.37 1628.36 3035.33 1667.7 3150.97 1709.31" stroke="url(#paint8_linear)" stroke-opacity="0.4" stroke-miterlimit="10"/>
<path d="M926.032 414.601C973.56 515.155 1080.07 558.921 1184.49 610.539C1235.6 635.651 1286.1 664.659 1329.74 703.384C1460.42 818.802 1443.54 894.366 1621.57 1020.88C1665.01 1051.52 1741.13 1071.1 1827.53 1092.3C2029.84 1141.21 2242.74 1219.49 2364.89 1294.6C2373.68 1300.19 2382.24 1305.01 2389.61 1310.3C2516.25 1397.45 2570.92 1502.54 2684.57 1578.99C2710.3 1596.55 2739.38 1611.96 2772.36 1625.56C2885.65 1671.18 3000.61 1710.52 3116.57 1751.72" stroke="url(#paint9_linear)" stroke-opacity="0.4" stroke-miterlimit="10"/>
<path d="M892.831 456.55C940.132 556.348 1046.32 600.521 1149.86 652.197C1200.65 677.716 1250.61 706.376 1294.57 744.694C1424.8 858.6 1411.85 935.442 1589.4 1057.36C1633.7 1087.94 1710.25 1105.95 1796.42 1126.4C2000.24 1174.43 2208.28 1255.74 2331 1334.28C2339.79 1339.87 2348.03 1345.1 2355.4 1350.39C2480.53 1438.41 2536.72 1542.63 2650.6 1619.84C2676.32 1637.39 2705.4 1652.8 2738.38 1666.4C2851.35 1712.43 2966.63 1751.37 3083.69 1793.27" stroke="url(#paint10_linear)" stroke-opacity="0.4" stroke-miterlimit="10"/>
<path d="M859.63 498.498C906.381 597.948 1012.24 642.528 1115.24 693.856C1166.03 719.375 1215.98 748.034 1259.39 786.003C1389.17 898.397 1380.72 976.867 1557.22 1093.84C1602.72 1123.96 1679.04 1141.21 1764.98 1160.9C1970.32 1208.06 2174.03 1292.75 2296.8 1374.37C2305.59 1379.95 2313.83 1385.19 2321.2 1390.48C2444.81 1479.37 2502.74 1583.47 2617.17 1661.03C2643.44 1678.94 2672.2 1694.75 2704.63 1708C2817.82 1754.79 2933.11 1793.72 3050.17 1835.62" stroke="url(#paint11_linear)" stroke-opacity="0.4" stroke-miterlimit="10"/>
<path d="M826.428 540.447C873.502 639.489 978.171 684.535 1080.62 735.514C1130.86 760.683 1180.81 789.344 1224.55 826.906C1354.1 938.544 1350.46 1018.23 1525.37 1129.91C1572.06 1159.56 1648.48 1175.65 1734.19 1194.59C1941.05 1240.88 2140.12 1329.34 2263.24 1413.65C2271.71 1419.63 2279.95 1424.87 2287.31 1430.16C2408.86 1519.58 2469.08 1623.91 2583.51 1701.47C2609.79 1719.37 2638.54 1735.19 2671.52 1748.79C2784.95 1796.33 2900.55 1834.86 3017.61 1876.76" stroke="url(#paint12_linear)" stroke-opacity="0.4" stroke-miterlimit="10"/>
<path d="M793.227 582.396C839.752 681.09 943.871 725.786 1046 777.172C1096.24 802.342 1145.32 831.061 1189.37 868.215C1318.47 978.341 1319.64 1059.25 1493.19 1166.39C1540.76 1195.99 1618.14 1210.85 1702.76 1229.09C1911.45 1274.1 2105.33 1366 2229.03 1453.73C2237.5 1459.72 2245.42 1465.36 2252.79 1470.65C2372.5 1561.35 2435.11 1664.75 2549.21 1742.72C2575.49 1760.62 2604.24 1776.44 2636.9 1790.44C2750 1838.4 2865.93 1876.51 2984.09 1919.11" stroke="url(#paint13_linear)" stroke-opacity="0.4" stroke-miterlimit="10"/>
<path d="M759.704 624.752C806.001 722.689 909.476 768.201 1011.05 819.238C1060.74 844.059 1110.37 873.127 1153.88 909.932C1282.52 1018.55 1288.18 1101.08 1460.7 1203.28C1509.46 1232.41 1586.93 1246.11 1671.32 1263.59C1881.53 1307.73 2071.09 1403.01 2194.83 1493.82C2203.3 1499.81 2211.22 1505.45 2218.26 1511.15C2336.45 1602.72 2400.81 1706 2514.91 1783.97C2541.19 1801.88 2570.49 1818.04 2603.15 1832.04C2716.48 1880.75 2832.41 1918.87 2950.89 1961.06" stroke="url(#paint14_linear)" stroke-opacity="0.4" stroke-miterlimit="10"/>
<path d="M726.502 666.701C772.573 763.882 875.403 810.208 976.431 860.897C1026.12 885.718 1074.88 914.844 1118.71 951.242C1246.57 1058.75 1257.37 1142.1 1428.52 1239.76C1478.47 1268.42 1555.72 1281.37 1639.88 1298.1C1852.16 1341.71 2036.3 1439.66 2160.63 1533.91C2168.77 1540.3 2176.69 1545.94 2184.06 1551.24C2300.73 1643.68 2367.15 1746.44 2481.49 1825.16C2508.31 1843.42 2537.06 1859.23 2569.4 1873.64C2682.4 1922.76 2799.2 1960.82 2917.37 2003.42" stroke="url(#paint15_linear)" stroke-opacity="0.4" stroke-miterlimit="10"/>
<path d="M693.301 708.65C738.823 805.482 841.104 851.46 941.809 902.556C991.177 927.784 1039.71 956.153 1083.54 992.551C1210.95 1098.55 1226.56 1183.12 1396.35 1276.24C1447.49 1304.44 1524.84 1316.22 1609 1332.95C1823.12 1375.28 2002.28 1477.42 2127.52 1574.69C2135.66 1581.09 2143.58 1586.73 2150.63 1592.43C2265.79 1685.75 2333.4 1788.04 2448.29 1867.11C2475.11 1885.37 2504.09 1901.93 2536.2 1915.59C2649.43 1965.46 2766.23 2003.52 2885.26 2046.06" stroke="url(#paint16_linear)" stroke-opacity="0.4" stroke-miterlimit="10"/>
<path d="M660.1 750.598C705.943 847.024 807.03 893.466 907.186 944.213C956.004 969.093 1004.54 997.463 1048.37 1033.86C1175.32 1138.35 1196.07 1223.73 1363.85 1313.13C1416.19 1340.86 1493.63 1351.48 1577.56 1367.45C1793.2 1408.91 1968.04 1514.43 2093.32 1614.78C2101.46 1621.18 2109.06 1627.23 2116.65 1633.27C2229.74 1727.12 2299.65 1829.64 2414.53 1908.71C2441.36 1926.97 2470.34 1943.53 2502.68 1957.95C2615.58 2008.23 2732.71 2045.88 2852.29 2088.77" stroke="url(#paint17_linear)" stroke-opacity="0.4" stroke-miterlimit="10"/>
<path d="M626.899 792.547C672.193 888.624 772.958 935.473 872.564 985.872C921.382 1010.75 969.592 1039.53 1013.19 1075.17C1139.38 1178.55 1165.25 1264.74 1331.67 1349.61C1385.21 1376.88 1462.74 1386.33 1546.13 1401.95C1763.28 1442.54 1933.57 1550.68 2059.11 1654.87C2067.26 1661.27 2074.85 1667.31 2082.12 1673.77C2193.7 1768.48 2265.67 1870.48 2380.23 1949.96C2406.73 1968.62 2436.04 1984.78 2468.38 1999.2C2581.51 2050.23 2698.63 2087.89 2818.54 2130.37" stroke="url(#paint18_linear)" stroke-opacity="0.4" stroke-miterlimit="10"/>
<path d="M593.375 834.903C638.443 930.224 738.885 977.481 837.62 1027.94C885.889 1052.47 934.098 1081.25 977.7 1116.89C1103.43 1218.75 1134.99 1306.11 1298.63 1386.15C1353.91 1413.3 1430.99 1421.24 1514.15 1436.11C1733.13 1475.42 1898.78 1587.33 2024.36 1694.61C2032.18 1701.41 2039.78 1707.46 2047.37 1713.51C2157.43 1809.1 2231.15 1910.98 2346.26 1990.81C2373.31 2009.82 2402.61 2025.98 2434.63 2040.8C2548.31 2092.18 2665.43 2129.84 2785.57 2173.07" stroke="url(#paint19_linear)" stroke-opacity="0.4" stroke-miterlimit="10"/>
<path d="M560.174 876.852C605.014 971.416 704.263 1019.14 802.998 1069.6C851.266 1094.13 898.604 1122.96 942.528 1158.2C1067.8 1258.55 1104.5 1346.72 1266.45 1422.63C1322.93 1449.31 1400.1 1456.1 1482.71 1470.61C1703.22 1509.05 1864.54 1624.34 1990.15 1734.7C1997.97 1741.5 2005.57 1747.55 2012.84 1754C2121.71 1850.06 2196.85 1952.23 2311.96 2032.06C2339.01 2051.07 2367.99 2067.64 2400.33 2082.05C2513.69 2133.84 2631.13 2171.09 2751.81 2214.67" stroke="url(#paint20_linear)" stroke-opacity="0.4" stroke-miterlimit="10"/>
<path d="M526.973 918.8C571.264 1013.02 670.191 1061.15 768.376 1111.25C816.095 1135.44 863.982 1164.62 907.356 1199.51C1031.85 1298.76 1074.01 1387.33 1234.28 1459.11C1292.27 1484.92 1369.21 1490.95 1451.27 1505.11C1673.62 1542.27 1829.75 1660.99 1955.95 1774.78C1963.77 1781.59 1971.04 1788.04 1978.32 1794.5C2085.12 1891.08 2162.87 1993.07 2277.66 2073.31C2304.71 2092.32 2334.24 2109.24 2365.7 2123.71C2479.29 2176.26 2596.74 2213.5 2717.74 2256.68" stroke="url(#paint21_linear)" stroke-opacity="0.4" stroke-miterlimit="10"/>
<path d="M493.771 960.75C538.385 1054.56 636.439 1102.75 733.752 1152.91C781.149 1177.5 828.489 1206.34 872.508 1240.41C996.553 1338.15 1043.84 1427.53 1202.42 1495.19C1261.61 1520.53 1338.33 1525.8 1420.48 1538.8C1644.35 1575.08 1796.48 1696.78 1922.39 1814.06C1929.89 1821.27 1937.48 1827.31 1944.43 1834.18C2049.72 1931.63 2128.67 2033.16 2244.55 2114.09C2272.15 2133.45 2301.13 2150.02 2332.83 2165.25C2446.09 2218.2 2564.41 2255.39 2685.96 2298.92" stroke="url(#paint22_linear)" stroke-opacity="0.4" stroke-miterlimit="10"/>
<path d="M460.248 1003.11C504.312 1096.56 601.495 1144.81 698.808 1194.98C746.205 1219.57 792.995 1248.05 837.014 1282.13C960.605 1378.35 1013.35 1468.14 1169.93 1532.08C1230.3 1556.95 1307.12 1561.06 1388.73 1573.71C1614.43 1608.71 1761.92 1734.19 1887.86 1854.55C1894.81 1861.41 1902.63 1868.22 1909.59 1875.08C2013.35 1973.4 2094.36 2074.41 2209.93 2155.75C2237.53 2175.11 2267.06 2192.03 2298.2 2206.91C2411.7 2260.62 2530.01 2297.81 2651.57 2341.33" stroke="url(#paint23_linear)" stroke-opacity="0.4" stroke-miterlimit="10"/>
<path d="M427.047 1045.05C470.884 1137.76 567.744 1186.41 664.186 1236.64C711.034 1260.88 757.823 1289.36 801.842 1323.44C924.656 1418.56 983.18 1508.35 1137.75 1568.56C1199.64 1592.56 1276.23 1595.91 1357.61 1607.81C1585.15 1641.53 1728.32 1770.38 1853.98 1894.23C1860.93 1901.09 1868.75 1907.9 1875.7 1914.76C1977.96 2013.96 2060.71 2114.85 2176.27 2196.19C2203.87 2215.55 2233.08 2232.87 2264.77 2248.1C2378.5 2302.57 2496.58 2339 2618.69 2382.88" stroke="url(#paint24_linear)" stroke-opacity="0.4" stroke-miterlimit="10"/>
<path d="M393.845 1087C437.455 1178.95 533.672 1228.42 629.564 1278.3C676.412 1302.54 722.878 1331.43 766.67 1364.74C889.58 1458.7 952.69 1548.96 1105.58 1605.04C1168.66 1628.57 1245.35 1630.76 1326.18 1642.31C1555.23 1675.16 1693.53 1807.03 1820.65 1934.26C1827.6 1941.12 1835.1 1948.33 1842.05 1955.2C1942.78 2055.27 2027.28 2156.04 2142.85 2237.38C2170.44 2256.74 2199.65 2274.07 2231.35 2289.29C2344.75 2344.17 2463.38 2380.95 2586.36 2424.77" stroke="url(#paint25_linear)" stroke-opacity="0.4" stroke-miterlimit="10"/>
<path d="M360.645 1128.95C403.705 1220.55 499.599 1270.43 594.943 1319.95C641.241 1343.85 687.706 1372.74 731.498 1406.05C853.954 1498.5 921.971 1588.81 1073.4 1641.52C1137.46 1663.83 1214.46 1665.61 1295.07 1676.41C1525.96 1707.97 1659.93 1843.23 1786.76 1973.94C1793.39 1981.21 1800.89 1988.42 1807.84 1995.28C1907.39 2095.82 1993.63 2196.48 2109.42 2278.57C2137.57 2298.28 2166.77 2315.61 2197.6 2330.89C2311.22 2386.52 2430.18 2422.9 2553.16 2466.72" stroke="url(#paint26_linear)" stroke-opacity="0.4" stroke-miterlimit="10"/>
<path d="M327.443 1170.9C370.826 1262.09 465.298 1311.68 560.319 1361.61C606.618 1385.5 652.213 1414.46 696.328 1447.36C818.007 1538.7 891.804 1629.01 1041.23 1678C1106.8 1699.44 1183.58 1700.46 1263.63 1710.91C1496.04 1741.6 1626.01 1879.82 1752.56 2014.03C1759.19 2021.3 1766.69 2028.51 1773.32 2035.78C1870.79 2136.84 1959.33 2237.73 2075.12 2319.83C2103.27 2339.53 2132.48 2356.86 2163.85 2372.5C2277.15 2428.53 2396.43 2464.5 2519.63 2509.07" stroke="url(#paint27_linear)" stroke-opacity="0.4" stroke-miterlimit="10"/>
<path d="M293.92 1213.26C336.754 1304.1 430.903 1354.09 525.375 1403.68C571.351 1427.98 616.719 1456.17 660.834 1489.08C782.059 1578.91 861.636 1669.22 1008.73 1714.89C1075.82 1735.46 1151.82 1735.37 1231.87 1745.82C1466.12 1775.23 1591.45 1917.24 1718.03 2054.53C1724.66 2061.79 1731.84 2069.41 1738.79 2076.27C1834.75 2178.21 1924.8 2278.23 2040.82 2361.08C2068.64 2381.19 2098.4 2398.87 2129.22 2414.15C2242.75 2470.95 2362.04 2506.91 2486.11 2551.43" stroke="url(#paint28_linear)" stroke-opacity="0.4" stroke-miterlimit="10"/>
<path d="M260.719 1255.21C303.325 1345.29 396.83 1396.1 490.753 1445.34C536.18 1469.29 581.775 1498.24 625.662 1530.39C746.111 1619.11 830.917 1709.07 976.005 1751.02C1044.29 1771.12 1120.38 1769.88 1200.21 1779.57C1435.75 1807.35 1557.31 1953.08 1683.6 2093.86C1690.23 2101.13 1697.41 2108.74 1704.04 2116.01C1798.48 2218.82 1890.27 2318.72 2006.29 2401.57C2034.12 2421.69 2063.88 2439.36 2094.7 2454.65C2208.13 2512.6 2328.06 2547.76 2452.13 2592.27" stroke="url(#paint29_linear)" stroke-opacity="0.4" stroke-miterlimit="10"/>
<path d="M227.517 1297.15C269.896 1386.48 362.53 1437.35 456.131 1487C501.557 1510.95 546.602 1539.55 590.49 1571.7C710.485 1658.91 800.198 1748.92 943.829 1787.5C1013.08 1806.38 1089.5 1804.73 1168.78 1814.07C1406.15 1840.57 1523.39 1989.67 1649.4 2133.95C1655.7 2141.62 1662.88 2149.24 1669.51 2156.51C1762.76 2259.78 1855.97 2359.97 1972.54 2443.17C2000.91 2463.64 2030.12 2480.96 2061.17 2497C2174.29 2555.37 2294.76 2590.87 2419.16 2634.98" stroke="url(#paint30_linear)" stroke-opacity="0.4" stroke-miterlimit="10"/>
<path d="M194.316 1339.1C236.696 1428.43 328.458 1479.36 421.509 1528.65C466.386 1552.25 511.43 1580.86 555.64 1612.6C675.182 1698.3 769.804 1788.37 911.655 1823.98C982.741 1841.58 1058.61 1839.58 1137.66 1848.16C1376.56 1873.8 1489.79 2025.87 1615.52 2173.63C1621.82 2181.3 1629 2188.92 1635.3 2196.6C1727.04 2300.74 1822.32 2400.41 1938.56 2484.02C1966.94 2504.48 1996.7 2522.15 2027.2 2537.85C2140.86 2596.56 2260.79 2631.71 2385.41 2676.58" stroke="url(#paint31_linear)" stroke-opacity="0.4" stroke-miterlimit="10"/>
<path d="M161.115 1381.05C203.268 1469.63 294.384 1521.37 386.886 1570.31C431.763 1593.91 476.487 1622.92 520.47 1653.91C639.235 1738.51 739.407 1827.82 879.479 1860.46C952.082 1877.19 1027.73 1874.43 1106.23 1882.67C1346.96 1907.02 1455.87 2062.46 1581.31 2213.71C1587.62 2221.39 1594.47 2229.41 1601.1 2236.68C1691.32 2341.7 1788.34 2441.25 1904.59 2524.86C1932.96 2545.32 1962.4 2563.4 1993.45 2579.45C2106.79 2638.57 2227.26 2674.07 2352.76 2718.87" stroke="url(#paint32_linear)" stroke-opacity="0.4" stroke-miterlimit="10"/>
<path d="M127.591 1423.41C169.194 1511.63 260.311 1563.37 351.941 1612.38C396.818 1635.98 440.992 1664.64 484.975 1695.63C602.964 1779.12 708.368 1868.08 846.982 1897.35C920.552 1912.86 996.519 1909.69 1074.79 1917.17C1317.36 1940.24 1422.5 2099.41 1547.11 2253.8C1553.41 2261.48 1559.72 2269.15 1566.57 2277.18C1655.6 2382.66 1754.36 2482.1 1870.29 2566.11C1899.21 2586.92 1928.65 2605 1958.82 2621.11C2072.39 2680.98 2193.19 2716.08 2318.68 2760.88" stroke="url(#paint33_linear)" stroke-opacity="0.4" stroke-miterlimit="10"/>
<path d="M94.3901 1465.36C135.767 1552.83 225.69 1605.03 317.319 1654.04C361.325 1677.7 405.499 1706.36 449.804 1736.94C567.339 1818.92 677.973 1907.53 814.807 1933.83C889.344 1948.12 965.634 1944.54 1043.36 1951.67C1287.22 1973.12 1388.58 2136.01 1512.9 2293.89C1519.21 2301.57 1525.19 2309.65 1532.05 2317.67C1619.55 2424.03 1719.51 2523 1836.53 2607.71C1865.46 2628.52 1894.9 2646.6 1925.07 2662.71C2038.87 2723.34 2159.44 2757.68 2285.48 2802.83" stroke="url(#paint34_linear)" stroke-opacity="0.4" stroke-miterlimit="10"/>
<path d="M61.1888 1507.31C102.338 1594.02 191.939 1646.63 282.697 1695.69C326.703 1719.35 370.327 1747.67 414.632 1778.25C531.713 1858.71 646.705 1947.03 782.631 1970.31C859.007 1983.32 934.748 1979.39 1011.92 1986.18C1257.62 2006.34 1354.67 2172.61 1479.25 2334.33C1485.23 2342.41 1491.54 2350.09 1498.07 2358.52C1584.38 2465.34 1685.76 2564.6 1802.78 2649.31C1831.71 2670.12 1861.15 2688.2 1891.55 2705.06C2005.02 2766.1 2126.14 2800.79 2252.73 2846.29" stroke="url(#paint35_linear)" stroke-opacity="0.4" stroke-miterlimit="10"/>
<path d="M27.9873 1549.25C69.1368 1635.97 157.867 1688.64 248.076 1737.35C407.523 1822.69 565.189 1979.11 749.907 2006.44C827.25 2018.23 903.312 2013.9 980.26 2019.92C1227.8 2038.8 1320.52 2208.45 1444.81 2373.66C1532.88 2490.78 1642.86 2597.94 1768.58 2689.4C1906.83 2790.04 2058.76 2829.6 2219.08 2886.73" stroke="url(#paint36_linear)" stroke-opacity="0.4" stroke-miterlimit="10"/>
<defs>
<linearGradient id="paint0_linear" x1="2336.7" y1="684.632" x2="2208.23" y2="886.954" gradientUnits="userSpaceOnUse">
<stop stop-color="white"/>
<stop offset="1"/>
</linearGradient>
<linearGradient id="paint1_linear" x1="2303.43" y1="726.665" x2="2178.02" y2="924.162" gradientUnits="userSpaceOnUse">
<stop stop-color="white"/>
<stop offset="1"/>
</linearGradient>
<linearGradient id="paint2_linear" x1="2270.16" y1="768.699" x2="2147.78" y2="961.43" gradientUnits="userSpaceOnUse">
<stop stop-color="white"/>
<stop offset="1"/>
</linearGradient>
<linearGradient id="paint3_linear" x1="2236.89" y1="810.734" x2="2117.52" y2="998.73" gradientUnits="userSpaceOnUse">
<stop stop-color="white"/>
<stop offset="1"/>
</linearGradient>
<linearGradient id="paint4_linear" x1="2203.62" y1="852.768" x2="2087.23" y2="1036.07" gradientUnits="userSpaceOnUse">
<stop stop-color="white"/>
<stop offset="1"/>
</linearGradient>
<linearGradient id="paint5_linear" x1="2170.35" y1="894.802" x2="2056.92" y2="1073.44" gradientUnits="userSpaceOnUse">
<stop stop-color="white"/>
<stop offset="1"/>
</linearGradient>
<linearGradient id="paint6_linear" x1="2137.09" y1="936.837" x2="2026.59" y2="1110.85" gradientUnits="userSpaceOnUse">
<stop stop-color="white"/>
<stop offset="1"/>
</linearGradient>
<linearGradient id="paint7_linear" x1="2103.82" y1="978.871" x2="1996.23" y2="1148.3" gradientUnits="userSpaceOnUse">
<stop stop-color="white"/>
<stop offset="1"/>
</linearGradient>
<linearGradient id="paint8_linear" x1="2070.55" y1="1020.91" x2="1965.86" y2="1185.78" gradientUnits="userSpaceOnUse">
<stop stop-color="white"/>
<stop offset="1"/>
</linearGradient>
<linearGradient id="paint9_linear" x1="2037.28" y1="1062.94" x2="1935.46" y2="1223.29" gradientUnits="userSpaceOnUse">
<stop stop-color="white"/>
<stop offset="1"/>
</linearGradient>
<linearGradient id="paint10_linear" x1="2004.01" y1="1104.97" x2="1905.03" y2="1260.84" gradientUnits="userSpaceOnUse">
<stop stop-color="white"/>
<stop offset="1"/>
</linearGradient>
<linearGradient id="paint11_linear" x1="1970.74" y1="1147.01" x2="1874.59" y2="1298.43" gradientUnits="userSpaceOnUse">
<stop stop-color="white"/>
<stop offset="1"/>
</linearGradient>
<linearGradient id="paint12_linear" x1="1937.47" y1="1189.04" x2="1844.12" y2="1336.05" gradientUnits="userSpaceOnUse">
<stop stop-color="white"/>
<stop offset="1"/>
</linearGradient>
<linearGradient id="paint13_linear" x1="1904.2" y1="1231.08" x2="1813.6" y2="1373.76" gradientUnits="userSpaceOnUse">
<stop stop-color="white"/>
<stop offset="1"/>
</linearGradient>
<linearGradient id="paint14_linear" x1="1870.93" y1="1273.11" x2="1782.96" y2="1411.66" gradientUnits="userSpaceOnUse">
<stop stop-color="white"/>
<stop offset="1"/>
</linearGradient>
<linearGradient id="paint15_linear" x1="1837.66" y1="1315.15" x2="1752.21" y2="1449.72" gradientUnits="userSpaceOnUse">
<stop stop-color="white"/>
<stop offset="1"/>
</linearGradient>
<linearGradient id="paint16_linear" x1="1804.4" y1="1357.18" x2="1721.38" y2="1487.92" gradientUnits="userSpaceOnUse">
<stop stop-color="white"/>
<stop offset="1"/>
</linearGradient>
<linearGradient id="paint17_linear" x1="1772.23" y1="1397.83" x2="1690.62" y2="1526.35" gradientUnits="userSpaceOnUse">
<stop stop-color="white"/>
<stop offset="1"/>
</linearGradient>
<linearGradient id="paint18_linear" x1="1741.61" y1="1436.5" x2="1660" y2="1565.03" gradientUnits="userSpaceOnUse">
<stop stop-color="white"/>
<stop offset="1"/>
</linearGradient>
<linearGradient id="paint19_linear" x1="1711.27" y1="1474.84" x2="1629.36" y2="1603.84" gradientUnits="userSpaceOnUse">
<stop stop-color="white"/>
<stop offset="1"/>
</linearGradient>
<linearGradient id="paint20_linear" x1="1681.16" y1="1512.88" x2="1598.69" y2="1642.77" gradientUnits="userSpaceOnUse">
<stop stop-color="white"/>
<stop offset="1"/>
</linearGradient>
<linearGradient id="paint21_linear" x1="1651.27" y1="1550.65" x2="1567.98" y2="1681.82" gradientUnits="userSpaceOnUse">
<stop stop-color="white"/>
<stop offset="1"/>
</linearGradient>
<linearGradient id="paint22_linear" x1="1621.56" y1="1588.19" x2="1537.24" y2="1720.97" gradientUnits="userSpaceOnUse">
<stop stop-color="white"/>
<stop offset="1"/>
</linearGradient>
<linearGradient id="paint23_linear" x1="1592.01" y1="1625.53" x2="1506.46" y2="1760.24" gradientUnits="userSpaceOnUse">
<stop stop-color="white"/>
<stop offset="1"/>
</linearGradient>
<linearGradient id="paint24_linear" x1="1562.59" y1="1662.69" x2="1475.64" y2="1799.63" gradientUnits="userSpaceOnUse">
<stop stop-color="white"/>
<stop offset="1"/>
</linearGradient>
<linearGradient id="paint25_linear" x1="1533.3" y1="1699.71" x2="1444.77" y2="1839.12" gradientUnits="userSpaceOnUse">
<stop stop-color="white"/>
<stop offset="1"/>
</linearGradient>
<linearGradient id="paint26_linear" x1="1504.1" y1="1736.59" x2="1413.84" y2="1878.74" gradientUnits="userSpaceOnUse">
<stop stop-color="white"/>
<stop offset="1"/>
</linearGradient>
<linearGradient id="paint27_linear" x1="1475" y1="1773.36" x2="1382.85" y2="1918.49" gradientUnits="userSpaceOnUse">
<stop stop-color="white"/>
<stop offset="1"/>
</linearGradient>
<linearGradient id="paint28_linear" x1="1445.98" y1="1810.03" x2="1351.78" y2="1958.37" gradientUnits="userSpaceOnUse">
<stop stop-color="white"/>
<stop offset="1"/>
</linearGradient>
<linearGradient id="paint29_linear" x1="1417.03" y1="1846.61" x2="1320.64" y2="1998.4" gradientUnits="userSpaceOnUse">
<stop stop-color="white"/>
<stop offset="1"/>
</linearGradient>
<linearGradient id="paint30_linear" x1="1388.13" y1="1883.12" x2="1289.4" y2="2038.6" gradientUnits="userSpaceOnUse">
<stop stop-color="white"/>
<stop offset="1"/>
</linearGradient>
<linearGradient id="paint31_linear" x1="1359.3" y1="1919.55" x2="1258.07" y2="2078.97" gradientUnits="userSpaceOnUse">
<stop stop-color="white" stop-opacity="0.5"/>
<stop offset="1"/>
</linearGradient>
<linearGradient id="paint32_linear" x1="1330.51" y1="1955.93" x2="1226.58" y2="2119.59" gradientUnits="userSpaceOnUse">
<stop stop-color="white" stop-opacity="0.5"/>
<stop offset="1"/>
</linearGradient>
<linearGradient id="paint33_linear" x1="1301.76" y1="1992.25" x2="1195.02" y2="2160.35" gradientUnits="userSpaceOnUse">
<stop stop-color="white" stop-opacity="0.5"/>
<stop offset="1"/>
</linearGradient>
<linearGradient id="paint34_linear" x1="1273.05" y1="2028.52" x2="1163.32" y2="2201.32" gradientUnits="userSpaceOnUse">
<stop stop-color="white"/>
<stop offset="1"/>
</linearGradient>
<linearGradient id="paint35_linear" x1="1244.45" y1="2064.66" x2="1131.37" y2="2242.73" gradientUnits="userSpaceOnUse">
<stop stop-color="white"/>
<stop offset="1"/>
</linearGradient>
<linearGradient id="paint36_linear" x1="1215.74" y1="2100.94" x2="1098.61" y2="2285.38" gradientUnits="userSpaceOnUse">
<stop stop-color="white"/>
<stop offset="1"/>
</linearGradient>
</defs>
</svg>
